<?xml version="1.0" encoding="UTF-8"?>
<svg width="191px" height="26px" viewBox="0 0 191 26" version="1.1" xmlns="http://www.w3.org/2000/svg" xmlns:xlink="http://www.w3.org/1999/xlink">
    <!-- Generator: Sketch 51.3 (57544) - http://www.bohemiancoding.com/sketch -->
    <title>BOBST_Logo__RGB</title>
    <desc>Created with Sketch.</desc>
    <defs>
        <polygon id="path-1" points="0.611079916 0.319120232 29.4057982 0.319120232 29.4057982 25.2807009 0.611079916 25.2807009"></polygon>
        <polygon id="path-3" points="0.621062551 0.318925765 28.0123778 0.318925765 28.0123778 25.2805712 0.621062551 25.2805712"></polygon>
    </defs>
    <g id="Page-1" stroke="none" stroke-width="1" fill="none" fill-rule="evenodd">
        <g id="BOBST_Logo__RGB" transform="translate(0.096995, 0.000000)">
            <path d="M0,25.3414394 L22.4674126,25.3414394 C23.5480005,25.3414394 24.4237499,24.46569 24.4237499,23.3851021 L24.4237499,0.917689442 L1.95633731,0.917689442 C0.87639763,0.917689442 0,1.79408707 0,2.87402676 L0,25.3414394 Z" id="Fill-1" fill="#DB0720"></path>
            <g id="Group-5" transform="translate(72.600987, 0.329168)">
                <mask id="mask-2" fill="white">
                    <use xlink:href="#path-1"></use>
                </mask>
                <g id="Clip-4"></g>
                <path d="M7.27157226,14.2507311 C7.27157226,17.7932703 7.93016693,19.1441673 11.0824759,19.1441673 L18.9350505,19.1441673 C22.0867112,19.1441673 22.7453059,17.7932703 22.7453059,14.2507311 L22.7453059,11.3486363 C22.7453059,8.31300749 22.0867112,6.45714476 18.5746384,6.45714476 L11.4422397,6.45714476 C7.93016693,6.45714476 7.27157226,8.31300749 7.27157226,11.3486363 L7.27157226,14.2507311 Z M0.611079916,9.15764219 C0.611079916,2.00514851 4.18084452,0.319120232 10.1807975,0.319120232 L19.8360806,0.319120232 C25.8366818,0.319120232 29.4057982,2.00514851 29.4057982,9.15764219 L29.4057982,16.4423734 C29.4057982,23.5955153 25.8366818,25.2808953 19.8360806,25.2808953 L10.1807975,25.2808953 C4.18084452,25.2808953 0.611079916,23.5955153 0.611079916,16.4423734 L0.611079916,9.15764219 Z" id="Fill-3" fill="#000000" mask="url(#mask-2)"></path>
            </g>
            <g id="Group-8" transform="translate(135.478628, 0.329168)">
                <mask id="mask-4" fill="white">
                    <use xlink:href="#path-3"></use>
                </mask>
                <g id="Clip-7"></g>
                <path d="M27.111996,7.53805678 C27.111996,3.25395031 26.3924683,0.31879612 18.7097281,0.31879612 L9.41096778,0.31879612 C1.01129286,0.31879612 0.651529037,3.72456028 0.651529037,8.14544182 C0.651529037,14.1492842 1.79045702,15.4988847 11.8113379,15.4988847 C20.3918671,15.4988847 21.1723277,15.6343633 21.1723277,17.7592386 C21.1723277,19.6468643 19.7306795,19.8173469 18.3201461,19.8173469 L10.1609619,19.8173469 C8.37705193,19.8173469 7.44750001,19.6390856 7.30294626,17.5297676 L0.621062551,17.5297676 L0.621062551,18.7036997 C0.621062551,23.9996824 3.05189917,25.2805712 9.11213693,25.2805712 L17.1825145,25.2805712 C26.0307598,25.2805712 28.0123778,24.2006315 28.0123778,17.6250564 C28.0123778,10.5056221 25.6126559,9.7977625 15.2611812,9.83211833 C8.12100381,9.8651777 7.31007671,9.7977625 7.31007671,7.67223896 C7.31007671,6.35699429 8.33102809,5.78461329 9.83166457,5.78461329 L17.212981,5.78461329 C19.9232018,5.78461329 20.3737168,6.36671764 20.441132,7.74289528 L27.111996,7.74289528 L27.111996,7.53805678 Z" id="Fill-6" fill="#000000" mask="url(#mask-4)"></path>
            </g>
            <path d="M189.931248,0.917819086 L189.931248,6.7861828 L180.572203,6.7861828 L180.572203,25.341569 L173.91171,25.341569 L173.91171,6.7861828 L164.550072,6.7861828 L164.550072,2.8741564 C164.550072,1.79421672 165.425174,0.917819086 166.505762,0.917819086 L189.931248,0.917819086 Z" id="Fill-9" fill="#000000"></path>
            <path d="M124.113786,19.4726219 L112.173516,19.4726219 L112.173516,15.6591254 L124.113786,15.6591254 C125.553489,15.6591254 126.514156,16.029909 126.514156,17.6822297 C126.514156,19.0992454 125.553489,19.4726219 124.113786,19.4726219 Z M112.173516,6.7855994 L123.963398,6.7855994 C125.193077,6.7855994 125.913253,7.29315809 125.913253,8.70952556 C125.913253,10.0921854 125.193077,10.5990959 123.963398,10.5990959 L112.173516,10.5990959 L112.173516,6.7855994 Z M129.363745,13.0273396 L129.363745,12.9255686 C131.225442,12.3207764 132.573746,11.5092011 132.573746,7.32621747 C132.573746,2.53649699 129.994466,0.917235686 124.682926,0.917235686 L107.47001,0.917235686 C106.39007,0.917235686 105.514321,1.79363332 105.514321,2.873573 L105.514321,25.3409856 L126.72418,25.3409856 C130.533139,25.3409856 133.354854,24.2266901 133.354854,18.8639404 C133.354854,15.1859225 132.274915,13.4311826 129.363745,13.0273396 Z" id="Fill-11" fill="#000000"></path>
            <path d="M61.3412222,19.4726219 L49.4009528,19.4726219 L49.4009528,15.6591254 L61.3412222,15.6591254 C62.7809257,15.6591254 63.7415924,16.029909 63.7415924,17.6822297 C63.7415924,19.0992454 62.7809257,19.4726219 61.3412222,19.4726219 Z M49.4009528,6.7855994 L61.1908345,6.7855994 C62.4205137,6.7855994 63.1406896,7.29315809 63.1406896,8.70952556 C63.1406896,10.0921854 62.4205137,10.5990959 61.1908345,10.5990959 L49.4009528,10.5990959 L49.4009528,6.7855994 Z M66.5911811,13.0273396 L66.5911811,12.9255686 C68.4528779,12.3207764 69.8011819,11.5092011 69.8011819,7.32621747 C69.8011819,2.53649699 67.2219022,0.917235686 61.9103621,0.917235686 L44.6974459,0.917235686 C43.6175063,0.917235686 42.7417569,1.79363332 42.7417569,2.873573 L42.7417569,25.3409856 L63.9516167,25.3409856 C67.7605756,25.3409856 70.5822907,24.2266901 70.5822907,18.8639404 C70.5822907,15.1859225 69.5023511,13.4311826 66.5911811,13.0273396 Z" id="Fill-13" fill="#000000"></path>
        </g>
    </g>
</svg>